<?xml version="1.0" encoding="utf-8"?>
<!-- Generator: Adobe Illustrator 23.0.1, SVG Export Plug-In . SVG Version: 6.00 Build 0)  -->
<svg version="1.1" xmlns="http://www.w3.org/2000/svg" xmlns:xlink="http://www.w3.org/1999/xlink" x="0px" y="0px"
     viewBox="0 0 1366 768" style="enable-background:new 0 0 1366 768;" xml:space="preserve">
<style type="text/css">
	.st0{opacity:0.06;}
	.st1{fill:#D0D0D0;}
	.st2{fill:#E3E3E3;}
	.st3{fill:#D1D1D1;}
	.st4{fill:#D3D3D3;}
	.st5{fill:#D9D9D9;}
	.st6{fill:#CECECE;}
	.st7{fill:#EAEAEA;}
	.st8{fill:#F4F4F4;}
	.st9{fill:#D7D7D7;}
	.st10{fill:#F1F1F1;}
	.st11{fill:#F0F0F0;}
	.st12{fill:#EDEDED;}
	.st13{fill:#E4E4E4;}
	.st14{fill:#D5D5D5;}
	.st15{fill:#CFCFCF;}
	.st16{fill:#DFDFDF;}
	.st17{fill:#ECECEC;}
	.st18{fill:#EBEBEB;}
	.st19{fill:#989898;}
	.st20{fill:#E6E6E6;}
	.st21{fill:#C7C7C7;}
	.st22{fill:#D8D8D8;}
	.st23{fill:#EEEEEE;}
	.st24{fill:#E7E7E7;}
	.st25{fill:#E5E5E5;}
	.st26{fill:#C6C6C6;}
	.st27{fill:none;stroke:#F2F2F2;stroke-miterlimit:10;}
	.st28{fill:#B5B5B5;}
	.st29{fill:#797979;}
	.st30{fill:#D2D2D2;}
	.st31{fill:#8C8C8C;}
	.st32{fill:#686868;}
	.st33{fill:#E9E9E9;}
	.st34{fill:#ACACAC;}
	.st35{fill:#BABABA;}
	.st36{fill:#A4A4A4;}
	.st37{fill:#E8E8E8;}
	.st38{fill:#9D9D9D;}
	.st39{fill:#A8A8A8;}
	.st40{fill:#707070;}
	.st41{fill:#A9A9A9;}
	.st42{fill:#8E8E8E;}
	.st43{fill:#959595;}
	.st44{fill:#6B6B6B;}
	.st45{fill:#E1E1E1;}
	.st46{fill:#ABABAB;}
	.st47{fill:#A3A3A3;}
	.st48{fill:#B6B6B6;}
	.st49{fill:#AEAEAE;}
	.st50{fill:#9C9C9C;}
	.st51{fill:#BBBBBB;}
	.st52{fill:#B7B7B7;}
	.st53{fill:#7C7C7C;}
	.st54{fill:#BFBFBF;}
	.st55{fill:#BDBDBD;}
	.st56{fill:#656565;}
	.st57{fill:#9E9E9E;}
	.st58{fill:#6A6A6A;}
	.st59{fill:#939393;}
	.st60{fill:#D4D4D4;}
	.st61{fill:#DCDCDC;}
	.st62{fill:#C1C1C1;}
	.st63{fill:#B2B2B2;}
	.st64{fill:#818181;}
	.st65{fill:#DBDBDB;}
	.st66{fill:#E2E2E2;}
	.st67{fill:#737373;}
	.st68{fill:#8F8F8F;}
	.st69{fill:#B9B9B9;}
	.st70{fill:#B8B8B8;}
	.st71{fill:#AFAFAF;}
	.st72{fill:#DADADA;}
	.st73{fill:#C2C2C2;}
	.st74{fill:#7F7F7F;}
	.st75{fill:#CDCDCD;}
	.st76{fill:#6D6D6D;}
	.st77{fill:#8B8B8B;}
	.st78{fill:#8A8A8A;}
	.st79{fill:#B1B1B1;}
	.st80{fill:#B4B4B4;}
	.st81{fill:#9A9A9A;}
</style>
    <g id="Layer_3">
	<g id="Feature_Page_-_Horizontal_3_">
		<g>
			<defs>
				<rect id="SVGID_1_" x="-0.02" y="0.3" width="1228.32" height="767.7"/>
			</defs>
            <use xlink:href="#SVGID_1_"  style="display:none;overflow:visible;fill:#F2F2F2;"/>
            <clipPath id="SVGID_2_">
				<use xlink:href="#SVGID_1_"  style="display:none;overflow:visible;"/>
			</clipPath>
		</g>
        <g class="st0">
			<polygon class="st1" points="1124.94,0.3 1205.29,70.09 1285.65,0.3 			"/>
            <polygon class="st2" points="1366,70.09 1285.65,0.3 1205.29,70.09 			"/>
            <polygon class="st3" points="1205.29,70.09 1124.94,0.3 1044.58,70.09 			"/>
            <polygon class="st4" points="964.23,0.3 1044.58,70.09 1124.94,0.3 			"/>
            <polygon class="st5" points="1285.65,0.3 1366,70.09 1366,0.3 			"/>
            <polygon class="st6" points="1044.58,70.09 964.23,0.3 883.88,70.09 			"/>
            <polygon class="st7" points="883.88,70.09 803.52,0.3 723.17,70.09 			"/>
            <polygon class="st8" points="642.81,0.3 723.17,70.09 803.52,0.3 			"/>
            <polygon class="st9" points="803.52,0.3 883.88,70.09 964.23,0.3 			"/>
            <polygon class="st8" points="723.17,70.09 642.81,0.3 562.46,70.09 			"/>
            <polygon class="st10" points="562.46,70.09 482.11,0.3 401.75,70.09 			"/>
            <polygon class="st11" points="321.4,0.3 401.75,70.09 482.11,0.3 			"/>
            <polygon class="st12" points="482.11,0.3 562.46,70.09 642.81,0.3 			"/>
            <polygon class="st13" points="401.75,70.09 321.4,0.3 241.04,70.09 			"/>
            <polygon class="st14" points="241.04,70.09 160.69,0.3 80.34,70.09 			"/>
            <polygon class="st5" points="80.34,70.09 -0.02,0.3 -0.02,70.09 			"/>
            <polygon class="st15" points="-0.02,0.3 80.34,70.09 160.69,0.3 			"/>
            <polygon class="st16" points="160.69,0.3 241.04,70.09 321.4,0.3 			"/>
            <polygon class="st17" points="1285.65,139.88 1205.29,70.09 1124.94,139.88 			"/>
            <polygon class="st18" points="1124.94,139.88 1044.58,70.09 964.23,139.88 			"/>
            <polygon class="st13" points="883.88,70.09 964.23,139.88 1044.58,70.09 			"/>
            <polygon class="st19" points="1044.58,70.09 1124.94,139.88 1205.29,70.09 			"/>
            <polygon class="st9" points="1366,139.88 1366,70.09 1285.65,139.88 			"/>
            <polygon class="st20" points="1205.29,70.09 1285.65,139.88 1366,70.09 			"/>
            <polygon class="st18" points="964.23,139.88 883.88,70.09 803.52,139.88 			"/>
            <polygon class="st21" points="803.52,139.88 723.17,70.09 642.81,139.88 			"/>
            <polygon class="st21" points="562.46,70.09 642.81,139.88 723.17,70.09 			"/>
            <polygon class="st22" points="723.17,70.09 803.52,139.88 883.88,70.09 			"/>
            <polygon class="st8" points="642.81,139.88 562.46,70.09 482.11,139.88 			"/>
            <polygon class="st9" points="482.11,139.88 401.75,70.09 321.4,139.88 			"/>
            <polygon class="st14" points="241.04,70.09 321.4,139.88 401.75,70.09 			"/>
            <polygon class="st23" points="401.75,70.09 482.11,139.88 562.46,70.09 			"/>
            <polygon class="st21" points="321.4,139.88 241.04,70.09 160.69,139.88 			"/>
            <polygon class="st24" points="160.69,139.88 80.34,70.09 -0.02,139.88 			"/>
            <polygon class="st25" points="-0.02,70.09 -0.02,139.88 80.34,70.09 			"/>
            <polygon class="st26" points="80.34,70.09 160.69,139.88 241.04,70.09 			"/>
            <polygon class="st27" points="1205.29,209.67 1124.94,139.88 1044.58,209.67 			"/>
            <polygon class="st10" points="1044.58,209.67 964.23,139.88 883.88,209.67 			"/>
            <polygon class="st17" points="803.52,139.88 883.88,209.67 964.23,139.88 			"/>
            <polygon class="st27" points="964.23,139.88 1044.58,209.67 1124.94,139.88 			"/>
            <polygon class="st18" points="1205.29,209.67 1124.94,139.88 1044.58,209.67 			"/>
            <polygon class="st21" points="964.23,139.88 1044.58,209.67 1124.94,139.88 			"/>
            <polygon class="st28" points="1366,209.67 1285.65,139.88 1205.29,209.67 			"/>
            <polygon class="st29" points="1124.94,139.88 1205.29,209.67 1285.65,139.88 			"/>
            <polygon class="st30" points="1285.65,139.88 1366,209.67 1366,139.88 			"/>
            <polygon class="st12" points="883.88,209.67 803.52,139.88 723.17,209.67 			"/>
            <polygon class="st31" points="723.17,209.67 642.81,139.88 562.46,209.67 			"/>
            <polygon class="st32" points="482.11,139.88 562.46,209.67 642.81,139.88 			"/>
            <polygon class="st33" points="642.81,139.88 723.17,209.67 803.52,139.88 			"/>
            <polygon class="st21" points="562.46,209.67 482.11,139.88 401.75,209.67 			"/>
            <polygon class="st8" points="401.75,209.67 321.4,139.88 241.04,209.67 			"/>
            <polygon class="st12" points="160.69,139.88 241.04,209.67 321.4,139.88 			"/>
            <polygon class="st12" points="321.4,139.88 401.75,209.67 482.11,139.88 			"/>
            <polygon class="st34" points="241.04,209.67 160.69,139.88 80.34,209.67 			"/>
            <polygon class="st1" points="80.34,209.67 -0.02,139.88 -0.02,209.67 			"/>
            <polygon class="st12" points="-0.02,139.88 80.34,209.67 160.69,139.88 			"/>
            <polygon class="st20" points="1285.65,279.46 1205.29,209.67 1124.94,279.46 			"/>
            <polygon class="st10" points="1044.58,209.67 1124.94,279.46 1205.29,209.67 			"/>
            <polygon class="st35" points="1366,279.46 1366,209.67 1285.65,279.46 			"/>
            <polygon class="st2" points="1205.29,209.67 1285.65,279.46 1366,209.67 			"/>
            <polygon class="st36" points="1124.94,279.46 1044.58,209.67 964.23,279.46 			"/>
            <polygon class="st12" points="964.23,279.46 883.88,209.67 803.52,279.46 			"/>
            <polygon class="st16" points="723.17,209.67 803.52,279.46 883.88,209.67 			"/>
            <polygon class="st10" points="883.88,209.67 964.23,279.46 1044.58,209.67 			"/>
            <polygon class="st9" points="803.52,279.46 723.17,209.67 642.81,279.46 			"/>
            <polygon class="st11" points="642.81,279.46 562.46,209.67 482.11,279.46 			"/>
            <polygon class="st18" points="401.75,209.67 482.11,279.46 562.46,209.67 			"/>
            <polygon class="st25" points="562.46,209.67 642.81,279.46 723.17,209.67 			"/>
            <polygon class="st37" points="482.11,279.46 401.75,209.67 321.4,279.46 			"/>
            <polygon class="st34" points="321.4,279.46 241.04,209.67 160.69,279.46 			"/>
            <polygon class="st12" points="80.34,209.67 160.69,279.46 241.04,209.67 			"/>
            <polygon class="st20" points="241.04,209.67 321.4,279.46 401.75,209.67 			"/>
            <polygon class="st38" points="160.69,279.46 80.34,209.67 -0.02,279.46 			"/>
            <polygon class="st39" points="-0.02,209.67 -0.02,279.46 80.34,209.67 			"/>
            <polygon class="st40" points="964.23,279.46 1044.58,349.26 1124.94,279.46 			"/>
            <polygon class="st41" points="1205.29,349.26 1124.94,279.46 1044.58,349.26 			"/>
            <polygon class="st2" points="1366,349.26 1285.65,279.46 1205.29,349.26 			"/>
            <polygon class="st42" points="1124.94,279.46 1205.29,349.26 1285.65,279.46 			"/>
            <polygon class="st43" points="1285.65,279.46 1366,349.26 1366,279.46 			"/>
            <polygon class="st44" points="1044.58,349.26 964.23,279.46 883.88,349.26 			"/>
            <polygon class="st13" points="883.88,349.26 803.52,279.46 723.17,349.26 			"/>
            <polygon class="st4" points="642.81,279.46 723.17,349.26 803.52,279.46 			"/>
            <polygon class="st16" points="803.52,279.46 883.88,349.26 964.23,279.46 			"/>
            <polygon class="st45" points="723.17,349.26 642.81,279.46 562.46,349.26 			"/>
            <polygon class="st1" points="562.46,349.26 482.11,279.46 401.75,349.26 			"/>
            <polygon class="st39" points="321.4,279.46 401.75,349.26 482.11,279.46 			"/>
            <polygon class="st13" points="482.11,279.46 562.46,349.26 642.81,279.46 			"/>
            <polygon class="st38" points="401.75,349.26 321.4,279.46 241.04,349.26 			"/>
            <polygon class="st46" points="241.04,349.26 160.69,279.46 80.34,349.26 			"/>
            <polygon class="st47" points="-0.02,279.46 80.34,349.26 160.69,279.46 			"/>
            <polygon class="st48" points="160.69,279.46 241.04,349.26 321.4,279.46 			"/>
            <polygon class="st49" points="80.34,349.26 -0.02,279.46 -0.02,349.26 			"/>
            <polygon class="st25" points="1285.65,419.05 1205.29,349.26 1124.94,419.05 			"/>
            <polygon class="st4" points="1044.58,349.26 1124.94,419.05 1205.29,349.26 			"/>
            <polygon class="st50" points="1366,419.05 1366,349.26 1285.65,419.05 			"/>
            <polygon class="st41" points="1205.29,349.26 1285.65,419.05 1366,349.26 			"/>
            <polygon class="st22" points="1124.94,419.05 1044.58,349.26 964.23,419.05 			"/>
            <polygon class="st28" points="883.88,349.26 964.23,419.05 1044.58,349.26 			"/>
            <polygon class="st51" points="964.23,419.05 883.88,349.26 803.52,419.05 			"/>
            <polygon class="st32" points="803.52,419.05 723.17,349.26 642.81,419.05 			"/>
            <polygon class="st31" points="562.46,349.26 642.81,419.05 723.17,349.26 			"/>
            <polygon class="st13" points="723.17,349.26 803.52,419.05 883.88,349.26 			"/>
            <polygon class="st21" points="642.81,419.05 562.46,349.26 482.11,419.05 			"/>
            <polygon class="st5" points="482.11,419.05 401.75,349.26 321.4,419.05 			"/>
            <polygon class="st52" points="241.04,349.26 321.4,419.05 401.75,349.26 			"/>
            <polygon class="st20" points="401.75,349.26 482.11,419.05 562.46,349.26 			"/>
            <polygon class="st53" points="321.4,419.05 241.04,349.26 160.69,419.05 			"/>
            <polygon class="st54" points="160.69,419.05 80.34,349.26 -0.02,419.05 			"/>
            <polygon class="st4" points="-0.02,349.26 -0.02,419.05 80.34,349.26 			"/>
            <polygon class="st29" points="80.34,349.26 160.69,419.05 241.04,349.26 			"/>
            <polygon class="st33" points="964.23,419.05 1044.58,488.84 1124.94,419.05 			"/>
            <polygon class="st9" points="803.52,419.05 883.88,488.84 964.23,419.05 			"/>
            <polygon class="st27" points="1205.29,488.84 1124.94,419.05 1044.58,488.84 			"/>
            <polygon class="st55" points="1205.29,488.84 1124.94,419.05 1044.58,488.84 			"/>
            <polygon class="st56" points="1366,488.84 1285.65,419.05 1205.29,488.84 			"/>
            <polygon class="st57" points="1124.94,419.05 1205.29,488.84 1285.65,419.05 			"/>
            <polygon class="st58" points="1285.65,419.05 1366,488.84 1366,419.05 			"/>
            <polygon class="st59" points="1044.58,488.84 964.23,419.05 883.88,488.84 			"/>
            <polygon class="st60" points="883.88,488.84 803.52,419.05 723.17,488.84 			"/>
            <polygon class="st54" points="723.17,488.84 642.81,419.05 562.46,488.84 			"/>
            <polygon class="st54" points="482.11,419.05 562.46,488.84 642.81,419.05 			"/>
            <polygon class="st15" points="642.81,419.05 723.17,488.84 803.52,419.05 			"/>
            <polygon class="st37" points="562.46,488.84 482.11,419.05 401.75,488.84 			"/>
            <polygon class="st1" points="401.75,488.84 321.4,419.05 241.04,488.84 			"/>
            <polygon class="st61" points="160.69,419.05 241.04,488.84 321.4,419.05 			"/>
            <polygon class="st23" points="321.4,419.05 401.75,488.84 482.11,419.05 			"/>
            <polygon class="st22" points="241.04,488.84 160.69,419.05 80.34,488.84 			"/>
            <polygon class="st46" points="80.34,488.84 -0.02,419.05 -0.02,488.84 			"/>
            <polygon class="st1" points="-0.02,419.05 80.34,488.84 160.69,419.05 			"/>
            <polygon class="st62" points="1285.65,558.63 1205.29,488.84 1124.94,558.63 			"/>
            <polygon class="st34" points="1044.58,488.84 1124.94,558.63 1205.29,488.84 			"/>
            <polygon class="st3" points="1366,558.63 1366,488.84 1285.65,558.63 			"/>
            <polygon class="st63" points="1205.29,488.84 1285.65,558.63 1366,488.84 			"/>
            <polygon class="st64" points="1124.94,558.63 1044.58,488.84 964.23,558.63 			"/>
            <polygon class="st33" points="883.88,488.84 964.23,558.63 1044.58,488.84 			"/>
            <polygon class="st51" points="964.23,558.63 883.88,488.84 803.52,558.63 			"/>
            <polygon class="st65" points="723.17,488.84 803.52,558.63 883.88,488.84 			"/>
            <polygon class="st7" points="803.52,558.63 723.17,488.84 642.81,558.63 			"/>
            <polygon class="st66" points="642.81,558.63 562.46,488.84 482.11,558.63 			"/>
            <polygon class="st46" points="401.75,488.84 482.11,558.63 562.46,488.84 			"/>
            <polygon class="st8" points="562.46,488.84 642.81,558.63 723.17,488.84 			"/>
            <polygon class="st53" points="482.11,558.63 401.75,488.84 321.4,558.63 			"/>
            <polygon class="st67" points="321.4,558.63 241.04,488.84 160.69,558.63 			"/>
            <polygon class="st7" points="80.34,488.84 160.69,558.63 241.04,488.84 			"/>
            <polygon class="st66" points="241.04,488.84 321.4,558.63 401.75,488.84 			"/>
            <polygon class="st68" points="160.69,558.63 80.34,488.84 -0.02,558.63 			"/>
            <polygon class="st38" points="-0.02,488.84 -0.02,558.63 80.34,488.84 			"/>
            <polygon class="st69" points="964.23,558.63 1044.58,628.42 1124.94,558.63 			"/>
            <polygon class="st66" points="803.52,558.63 883.88,628.42 964.23,558.63 			"/>
            <polygon class="st19" points="1205.29,628.42 1124.94,558.63 1044.58,628.42 			"/>
            <polygon class="st19" points="1205.29,628.42 1124.94,558.63 1044.58,628.42 			"/>
            <polygon class="st70" points="1366,628.42 1285.65,558.63 1205.29,628.42 			"/>
            <polygon class="st38" points="1124.94,558.63 1205.29,628.42 1285.65,558.63 			"/>
            <polygon class="st71" points="1285.65,558.63 1366,628.42 1366,558.63 			"/>
            <polygon class="st71" points="1285.65,558.63 1366,628.42 1366,558.63 			"/>
            <polygon class="st72" points="1044.58,628.42 964.23,558.63 883.88,628.42 			"/>
            <polygon class="st73" points="883.88,628.42 803.52,558.63 723.17,628.42 			"/>
            <polygon class="st71" points="642.81,558.63 723.17,628.42 803.52,558.63 			"/>
            <polygon class="st7" points="723.17,628.42 642.81,558.63 562.46,628.42 			"/>
            <polygon class="st3" points="562.46,628.42 482.11,558.63 401.75,628.42 			"/>
            <polygon class="st54" points="321.4,558.63 401.75,628.42 482.11,558.63 			"/>
            <polygon class="st74" points="482.11,558.63 562.46,628.42 642.81,558.63 			"/>
            <polygon class="st32" points="401.75,628.42 321.4,558.63 241.04,628.42 			"/>
            <polygon class="st4" points="241.04,628.42 160.69,558.63 80.34,628.42 			"/>
            <polygon class="st4" points="-0.02,558.63 80.34,628.42 160.69,558.63 			"/>
            <polygon class="st53" points="160.69,558.63 241.04,628.42 321.4,558.63 			"/>
            <polygon class="st75" points="80.34,628.42 -0.02,558.63 -0.02,628.42 			"/>
            <g>
				<polygon class="st47" points="1285.65,698.21 1205.29,628.42 1124.94,698.21 				"/>
                <polygon class="st15" points="1044.58,628.42 1124.94,698.21 1205.29,628.42 				"/>
                <polygon class="st76" points="1366,698.21 1366,628.42 1285.65,698.21 				"/>
                <polygon class="st19" points="1205.29,628.42 1285.65,698.21 1366,628.42 				"/>
                <polygon class="st63" points="1124.94,698.21 1044.58,628.42 964.23,698.21 				"/>
                <polygon class="st77" points="883.88,628.42 964.23,698.21 1044.58,628.42 				"/>
                <polygon class="st78" points="964.23,698.21 883.88,628.42 803.52,698.21 				"/>
                <polygon class="st79" points="723.17,628.42 803.52,698.21 883.88,628.42 				"/>
                <polygon class="st70" points="803.52,698.21 723.17,628.42 642.81,698.21 				"/>
                <polygon class="st36" points="562.46,628.42 642.81,698.21 723.17,628.42 				"/>
                <polygon class="st5" points="642.81,698.21 562.46,628.42 482.11,698.21 				"/>
                <polygon class="st51" points="482.11,698.21 401.75,628.42 321.4,698.21 				"/>
                <polygon class="st1" points="241.04,628.42 321.4,698.21 401.75,628.42 				"/>
                <polygon class="st14" points="401.75,628.42 482.11,698.21 562.46,628.42 				"/>
                <polygon class="st80" points="321.4,698.21 241.04,628.42 160.69,698.21 				"/>
                <polygon class="st81" points="160.69,698.21 80.34,628.42 -0.02,698.21 				"/>
                <polygon class="st81" points="-0.02,628.42 -0.02,698.21 80.34,628.42 				"/>
                <polygon class="st57" points="80.34,628.42 160.69,698.21 241.04,628.42 				"/>
			</g>
            <polygon class="st77" points="964.23,698.21 1044.58,768 1124.94,698.21 			"/>
            <polygon class="st38" points="803.52,698.21 883.88,768 964.23,698.21 			"/>
            <polygon class="st79" points="1205.29,768 1124.94,698.21 1044.58,768 			"/>
            <polygon class="st66" points="1205.29,768 1124.94,698.21 1044.58,768 			"/>
            <polygon class="st19" points="1366,768 1285.65,698.21 1205.29,768 			"/>
            <polygon class="st15" points="1124.94,698.21 1205.29,768 1285.65,698.21 			"/>
            <polygon class="st79" points="1285.65,698.21 1366,768 1366,698.21 			"/>
            <polygon class="st66" points="1285.65,698.21 1366,768 1366,698.21 			"/>
            <polygon class="st69" points="1044.58,768 964.23,698.21 883.88,768 			"/>
            <polygon class="st73" points="883.88,768 803.52,698.21 723.17,768 			"/>
            <polygon class="st36" points="642.81,698.21 723.17,768 803.52,698.21 			"/>
            <polygon class="st70" points="723.17,768 642.81,698.21 562.46,768 			"/>
            <polygon class="st5" points="482.11,698.21 562.46,768 642.81,698.21 			"/>
            <polygon class="st36" points="562.46,768 482.11,698.21 401.75,768 			"/>
            <polygon class="st1" points="401.75,768 321.4,698.21 241.04,768 			"/>
            <polygon class="st57" points="160.69,698.21 241.04,768 321.4,698.21 			"/>
            <polygon class="st59" points="321.4,698.21 401.75,768 482.11,698.21 			"/>
            <polygon class="st80" points="241.04,768 160.69,698.21 80.34,768 			"/>
            <polygon class="st38" points="80.34,768 -0.02,698.21 -0.02,768 			"/>
            <polygon class="st75" points="-0.02,698.21 80.34,768 160.69,698.21 			"/>
		</g>
	</g>
</g>
    <g id="Layer_2">
</g>
</svg>
