<?xml version="1.0" encoding="utf-8"?>
<!-- Generator: Adobe Illustrator 23.0.1, SVG Export Plug-In . SVG Version: 6.00 Build 0)  -->
<svg version="1.1" id="Layer_1" xmlns="http://www.w3.org/2000/svg" xmlns:xlink="http://www.w3.org/1999/xlink" x="0px" y="0px"
     viewBox="0 0 1265 300" style="enable-background:new 0 0 1265 300;" xml:space="preserve">
<style type="text/css">
	.st0{fill:#FEFEFE;}
</style>
    <g>
	<g>
		<path class="st0" d="M877.11,209.34c-0.01,3.5,1.04,4.46,4.45,4.38c9.71-0.21,19.44-0.35,29.14,0.05
			c4.68,0.19,5.69-1.28,5.63-5.74c-0.26-17.61-0.18-35.22-0.08-52.83c0.04-7.49,0.34-15.01,3.37-22.04
			c3.19-7.41,9.6-10.72,18.33-9.72c6.59,0.76,10.79,5.16,12.03,13.19c0.65,4.18,0.93,8.46,0.95,12.69
			c0.1,19.63,0.15,39.27-0.04,58.9c-0.04,4.01,0.7,5.71,5.2,5.54c9.5-0.36,19.03-0.31,28.53-0.02c4.16,0.13,5.54-0.92,5.47-5.3
			c-0.26-16.8-0.16-33.6-0.08-50.4c0.03-7.07-0.3-14.17,1.29-21.16c2.15-9.42,7.66-13.82,17.23-13.57
			c8.19,0.22,14.02,5.5,15.41,14.31c0.5,3.18,0.44,6.46,0.45,9.69c0.04,20.44,0.03,40.89,0.01,61.33c0,2.68-0.45,5.17,3.8,5.08
			c10.52-0.24,21.05-0.18,31.58-0.02c3.02,0.05,3.78-1.1,3.75-3.9c-0.33-26.71,0.87-53.46-0.65-80.14
			c-1.22-21.41-12.11-34.27-30.46-37.62c-19.16-3.49-35.23,1.59-47.92,18.01c-7.42-14.35-19.59-18.87-34.06-19.02
			c-14.82-0.15-25.98,6.89-35.35,19.69c0-4.9-0.27-8.13,0.07-11.29c0.43-4.06-1.13-5.11-5.05-5c-9.51,0.27-19.03,0.22-28.54,0.02
			c-3.37-0.07-4.47,0.84-4.45,4.35C877.23,135.66,877.23,172.5,877.11,209.34z"/>
        <path class="st0" d="M56.47,213.75c10.91-0.33,21.85-0.32,32.76,0.01c4.03,0.12,5.63-1.39,6.75-4.96
			c2.17-6.93,4.96-13.66,7.08-20.6c0.96-3.15,2.53-3.99,5.63-3.96c16.18,0.13,32.37,0.18,48.55-0.03c3.55-0.05,4.89,1.27,5.86,4.45
			c2.19,7.13,4.82,14.13,7.19,21.21c0.83,2.49,1.84,3.93,5,3.87c13.34-0.23,26.68-0.1,40.33-0.1c-0.12-1.18-0.08-1.6-0.21-1.95
			c-19.74-52.92-39.52-105.82-59.15-158.78c-1.14-3.07-2.93-3.22-5.47-3.2c-11.53,0.06-23.06,0.21-34.59-0.08
			c-3.75-0.09-5.29,1.28-6.46,4.61c-3.39,9.71-7.1,19.31-10.7,28.95c-15.54,41.57-31.02,83.16-46.74,124.66
			C50.38,212.86,51.33,213.9,56.47,213.75z M115.46,149.12c5.76-17.61,11.46-35.24,17.67-54.37c6.08,19.16,11.59,36.64,17.21,54.09
			c1.02,3.18-0.18,3.85-3.09,3.82c-9.7-0.1-19.41-0.11-29.11,0.01C115.29,152.71,114.59,151.8,115.46,149.12z"/>
        <path class="st0" d="M249.77,206.19c18.75,5.35,35.64,2.69,49.2-15.13c-0.16,9.74,0.72,17.84-1.34,25.8
			c-1.65,6.39-5.47,10.91-12.01,12.32c-5.77,1.24-11.67,1.09-17.45-0.34c-4.59-1.14-8.15-3.63-9.42-8.44
			c-0.61-2.31-1.75-3.24-4.24-3.21c-10.72,0.12-21.45,0.13-32.17,0c-3.18-0.04-3.53,0.93-2.89,3.9
			c3.32,15.45,12.52,25.44,27.45,30.27c13.75,4.45,27.94,4.74,42.06,3.33c25.86-2.59,40.99-15.06,45.99-36.93
			c1.36-5.93,1.76-11.98,1.74-18.07c-0.06-20.03-0.02-40.07-0.02-60.1c0-13.56-0.04-27.12,0.03-40.67c0.01-2.69-0.01-4.54-3.69-4.45
			c-10.11,0.24-20.23,0.14-30.35,0.05c-2.6-0.02-3.53,0.87-3.53,3.51c0,3.22,0.65,6.59-0.68,10.39
			c-5.66-8.58-12.52-14.16-21.95-16.27c-22.55-5.05-45.2,6.04-55.37,27.26c-7.5,15.65-7.93,32.12-4.49,48.63
			C220.49,186.69,230.65,200.74,249.77,206.19z M256.29,135.36c3.35-9.46,9.93-14.1,19.55-14.27c10.08-0.18,16.94,4.29,20.89,13.44
			c2.21,5.11,2.66,10.52,3.12,15.98c-0.35,6.06-1.03,12.05-4.23,17.44c-4.87,8.24-12.38,11.18-21.55,10.53
			c-8.51-0.6-14.33-5.26-17.48-12.94C252.54,155.61,252.73,145.41,256.29,135.36z"/>
        <path class="st0" d="M600.17,213.71c9.5-0.18,19.02-0.3,28.52,0.04c4.43,0.16,5.83-0.89,5.76-5.58
			c-0.29-19.41-0.11-38.84-0.13-58.25c0-5.95,0.91-11.7,3.91-16.92c4.62-8.04,13.15-11.26,23.7-9.11c7.55,1.54,11.69,6.8,12.5,16.41
			c0.42,5.03,0.48,10.1,0.49,15.15c0.03,17.8,0.05,35.6-0.11,53.4c-0.03,3.51,0.67,5.02,4.64,4.9c9.9-0.29,19.83-0.31,29.73,0
			c4.16,0.13,5.04-1.35,4.99-5.18c-0.19-14.76,0.03-29.53-0.11-44.3c-0.13-13.14,0.71-26.29-0.88-39.4
			c-2.07-17.02-11.71-28.69-27.53-32.22c-20.37-4.55-37.98,0.16-52.48,17.83c0-4.63-0.28-7.88,0.07-11.05
			c0.44-4.1-1.2-5.07-5.06-4.96c-9.5,0.26-19.02,0.22-28.52,0.01c-3.38-0.08-4.44,0.85-4.42,4.34c0.12,36.81,0.15,73.63-0.03,110.44
			C595.19,213.36,596.8,213.78,600.17,213.71z"/>
        <path class="st0" d="M799.53,217.05c36.14-1.89,61.79-29.64,60.05-64.95c-1.87-37.87-29.14-62.68-67.02-60.98
			c-34.69,1.56-60.08,30.12-58.52,65.83C735.62,193.13,763.72,218.92,799.53,217.05z M778.64,131.5
			c7.84-14.44,27.87-14.23,36.39-0.14c4.2,6.95,5.43,14.67,5.37,22.66c0.07,7.99-1.08,15.71-5.29,22.67
			c-8.62,14.24-29.08,14.26-36.77-0.48C770.69,161.55,770.74,146.05,778.64,131.5z"/>
        <path class="st0" d="M512.12,217.1c36.28,0.01,62.69-26.42,62.75-62.8c0.06-36.49-26.17-63.12-62.29-63.26
			c-36.54-0.14-63.06,26.4-63.07,63.11C449.51,190.57,475.89,217.1,512.12,217.1z M493.14,132.97c3.59-7.86,10.01-11.85,18.78-11.91
			c8.72-0.06,15.05,3.8,19.15,11.43c3.62,6.75,4.86,14.04,4.81,21.61c0.05,7.57-1.14,14.87-4.82,21.59
			c-4.15,7.57-10.5,11.44-19.21,11.36c-8.76-0.08-15.2-4.14-18.78-11.95C486.68,161.14,486.76,146.93,493.14,132.97z"/>
        <path class="st0" d="M1117.44,209.71c17.45,8.41,35.88,9.34,54.46,4.6c18.31-4.67,31.92-15.08,38.48-33.54
			c1.22-3.44,0.46-4.21-2.94-4.14c-7.89,0.16-15.79,0.17-23.67-0.01c-2.79-0.06-4.37,1.3-6.18,3.06
			c-15.3,14.94-38.18,14.9-52.68,0.01c-14.49-14.88-14.51-39.03,0.24-53.62c10.35-10.24,22.94-13.51,36.85-9.3
			c12.86,3.89,20.97,12.84,25.09,26.32c-16.02,0-31.35,0-46.68,0c-9.92,0-14.86,4.18-16.66,13.76c-0.76,4.05-0.54,6.06,4.77,5.98
			c24.48-0.33,48.97-0.15,73.45-0.15c12.27,0,12.55-0.02,11.55-12.15c-1.89-22.91-9.88-42.91-31.22-54.27
			c-37.17-19.77-90.37-1.21-96.84,47.74C1082.08,169.44,1090.76,196.85,1117.44,209.71z"/>
        <path class="st0" d="M363.03,209.65c-0.01,3.23,1.02,4.12,4.16,4.06c9.92-0.18,19.85-0.3,29.75,0.04
			c4.39,0.15,5.33-1.28,5.28-5.43c-0.22-18.22-0.23-36.44-0.03-54.66c0.16-13.71,8.8-23.64,22.17-26.51
			c5.7-1.22,11.37-1.07,16.82,0.47c4.75,1.34,5.28-0.37,5.15-4.48c-0.28-8.49-0.31-17.01,0.01-25.5c0.16-4.16-1.57-5.2-5.25-5.38
			c-17.48-0.82-31.32,4.88-40.16,21.36c0-5.04-0.19-10.08,0.07-15.11c0.17-3.24-0.93-4.12-4.09-4.06c-9.92,0.19-19.84,0.18-29.76,0
			c-3.12-0.06-4.16,0.77-4.15,4.04C363.13,135.56,363.13,172.61,363.03,209.65z"/>
        <path class="st0" d="M1101.66,83.44c1.61,2.39,2.7,2.52,5.18,0.93c26.19-16.73,53.08-17.47,80.39-2.86
			c2.7,1.45,4.13,1.61,5.76-1.19c2.33-4.01,4.8-7.99,7.62-11.67c2.26-2.96,1.35-4.2-1.51-5.85c-15.41-8.89-31.91-13.55-49.73-13.43
			c-20.22-0.11-38.61,5.68-55.36,16.96c-2.47,1.67-3.35,2.85-1.1,5.49C1096.05,75.49,1098.95,79.41,1101.66,83.44z"/>
	</g>
</g>
</svg>
