<svg xmlns="http://www.w3.org/2000/svg" viewBox="0 0 573.62 143.98"><defs><style>.cls-1{fill:#fff;}</style></defs><title>agribiz.logo</title><g id="Layer_2" data-name="Layer 2"><g id="Layer_10" data-name="Layer 10"><path class="cls-1" d="M53.4,110.45V99.58q-8.79,13.08-26.23,13.09-12.87,0-20-6.58A21.57,21.57,0,0,1,0,89.5a24.49,24.49,0,0,1,3.4-13,25.29,25.29,0,0,1,9.54-9A39.5,39.5,0,0,1,24.06,63.8a87.34,87.34,0,0,1,17.12-1.46q4.5,0,11.51.35a10.52,10.52,0,0,0-4.08-8.29q-3.93-3.15-13.29-3.14a54.7,54.7,0,0,0-12.44,1.5,108,108,0,0,0-14.09,5V36.6a117.52,117.52,0,0,1,15.87-3.43,119,119,0,0,1,16.16-1,98,98,0,0,1,23.95,2.57,32.4,32.4,0,0,1,9.15,3.79,25.13,25.13,0,0,1,6.68,5.68A26.21,26.21,0,0,1,84.68,52q1.6,4.73,1.61,13v45.4Zm.29-34a70,70,0,0,0-12.44.64,9.43,9.43,0,0,0-5.51,3.08,8.07,8.07,0,0,0-2,5.36A7.41,7.41,0,0,0,36.17,91a8.27,8.27,0,0,0,5.94,2.32,10.94,10.94,0,0,0,8-3.79q3.64-3.78,3.65-10.86C53.76,78.18,53.73,77.42,53.69,76.42Z"/><path class="cls-1" d="M154.34,50.33V34h34.39V103.3q0,9-1.15,13.37a29.92,29.92,0,0,1-5.43,10.65,35.68,35.68,0,0,1-9.76,8.51,47,47,0,0,1-13,5.36A92,92,0,0,1,136.54,144a150.88,150.88,0,0,1-17.83-1.18,147.12,147.12,0,0,1-17.77-3.18V115a118.48,118.48,0,0,0,16.62,5.69,55.55,55.55,0,0,0,12.62,1.46,28.69,28.69,0,0,0,13.62-3q5.53-3,7.47-7.47t1.86-13.8a31.28,31.28,0,0,1-10.65,9.65,28.51,28.51,0,0,1-13.94,3.5,31.86,31.86,0,0,1-14.37-3.22,29.2,29.2,0,0,1-10.37-8.18A34.45,34.45,0,0,1,98,87.39a58.88,58.88,0,0,1-2-15.33A57,57,0,0,1,99,53.4a33,33,0,0,1,6.15-11.12,29.38,29.38,0,0,1,9.58-7.39q5.58-2.72,14-2.72a34.09,34.09,0,0,1,12.4,2.07A19,19,0,0,1,149.41,40,31.39,31.39,0,0,1,154.34,50.33Zm-10.79,37.6a7.85,7.85,0,0,0,6.65-3.25q2.43-3.25,2.43-12.91,0-9.22-2.65-12.79a7.33,7.33,0,0,0-6.29-2.79,8.11,8.11,0,0,0-6.93,3.29q-2.43,3.29-2.43,13.65,0,8.58,2.71,12.08Q139.11,87.93,143.55,87.93Z"/><path class="cls-1" d="M267.65,33.31V63.48a21.55,21.55,0,0,0-7.51-1.21,20.54,20.54,0,0,0-9.47,2.32,19.87,19.87,0,0,0-7.18,6,18,18,0,0,0-2.86,6.72,29.07,29.07,0,0,0-.65,6.93v26.24H202.74V34h34.89V51.11q4.58-9.93,10.22-14.12a22.7,22.7,0,0,1,13.87-4.18A41.37,41.37,0,0,1,267.65,33.31Z"/><path class="cls-1" d="M316.05,25.52h-37V0h37Zm-37,84.93V34h37v76.42Z"/><path class="cls-1" d="M330.77,7.22h64.42a64.41,64.41,0,0,1,12.29.93,32.3,32.3,0,0,1,12.15,4.9,22.8,22.8,0,0,1,7.48,8.61,27.13,27.13,0,0,1,2.6,12.22,24.37,24.37,0,0,1-2.93,12.34,23.73,23.73,0,0,1-8.43,8.47,40.11,40.11,0,0,1-9.65,3.93q11.15,1.79,17,8.4t5.86,16.62a25.39,25.39,0,0,1-4.68,15.23,22.21,22.21,0,0,1-12.05,8.65,75.46,75.46,0,0,1-21,2.93H330.77Zm36.46,20.37V48.11h11.3q6.86,0,9.9-2.75a9.33,9.33,0,0,0,3-7.26,10.27,10.27,0,0,0-1.75-5.82A9.21,9.21,0,0,0,385,28.63a26.21,26.21,0,0,0-8.36-1Zm0,41V90.15h10.65q7.59,0,11.09-3.08a9.85,9.85,0,0,0,3.5-7.72,10.94,10.94,0,0,0-1.68-6,8.8,8.8,0,0,0-4.58-3.69,26.51,26.51,0,0,0-8.47-1Z"/><path class="cls-1" d="M481.47,25.52h-37V0h37Zm-37,84.93V34h37v76.42Z"/><path class="cls-1" d="M495.34,34h77.28V65.7l-35.1,22.51h36.1v22.24H494V78.56l37.1-22.37H495.34Z"/></g></g></svg>